{
  "accessors": [
    {
      "bufferView": 2,
      "componentType": 5126,
      "count": 7252,
      "max": [
        0.9321661591529846,
        0.9988616108894348,
        0.9988616108894348
      ],
      "min": [
        -3.631887912750244,
        -0.9988613724708557,
        -0.9988613724708557
      ],
      "type": "VEC3"
    },
    {
      "bufferView": 2,
      "byteOffset": 87024,
      "componentType": 5126,
      "count": 7252,
      "max": [
        1.0,
        1.0,
        1.0
      ],
      "min": [
        -1.0,
        -1.0,
        -1.0
      ],
      "type": "VEC3"
    },
    {
      "bufferView": 3,
      "componentType": 5126,
      "count": 7252,
      "max": [
        0.9999999403953552,
        0.9999986290931702,
        0.9999929666519165,
        1.0
      ],
      "min": [
        -1.0,
        -0.9999929070472717,
        -0.9999988079071045,
        -1.0
      ],
      "type": "VEC4"
    },
    {
      "bufferView": 1,
      "componentType": 5126,
      "count": 7252,
      "max": [
        0.9341639280319214,
        0.9863651990890503
      ],
      "min": [
        0.019032061100006104,
        0.015857532620429993
      ],
      "type": "VEC2"
    },
    {
      "bufferView": 1,
      "byteOffset": 58016,
      "componentType": 5126,
      "count": 7252,
      "max": [
        0.9341639280319214,
        0.9863651990890503
      ],
      "min": [
        0.019032061100006104,
        0.015857532620429993
      ],
      "type": "VEC2"
    },
    {
      "bufferView": 1,
      "byteOffset": 116032,
      "componentType": 5126,
      "count": 7252,
      "max": [
        0.9341639280319214,
        0.9863651990890503
      ],
      "min": [
        0.019032061100006104,
        0.015857532620429993
      ],
      "type": "VEC2"
    },
    {
      "bufferView": 0,
      "componentType": 5125,
      "count": 36600,
      "type": "SCALAR"
    },
    {
      "bufferView": 2,
      "byteOffset": 174048,
      "componentType": 5126,
      "count": 5114,
      "max": [
        1.0479731559753418,
        0.999518871307373,
        0.999518871307373
      ],
      "min": [
        -0.8339436650276184,
        -0.999518871307373,
        -0.999518871307373
      ],
      "type": "VEC3"
    },
    {
      "bufferView": 2,
      "byteOffset": 235416,
      "componentType": 5126,
      "count": 5114,
      "max": [
        1.0,
        0.9999974966049194,
        0.9999975562095642
      ],
      "min": [
        -0.9999959468841553,
        -0.9999974966049194,
        -0.9999975562095642
      ],
      "type": "VEC3"
    },
    {
      "bufferView": 1,
      "byteOffset": 174048,
      "componentType": 5126,
      "count": 5114,
      "max": [
        1.0,
        0.9980080723762512
      ],
      "min": [
        0.0,
        0.0
      ],
      "type": "VEC2"
    },
    {
      "bufferView": 0,
      "byteOffset": 146400,
      "componentType": 5125,
      "count": 29424,
      "type": "SCALAR"
    }
  ],
  "asset": {
    "extras": {
      "author": "niver_mk (https://sketchfab.com/niver_mk)",
      "license": "CC-BY-4.0 (http://creativecommons.org/licenses/by/4.0/)",
      "source": "https://sketchfab.com/3d-models/eye-implant-e988ba5725fe4111b82f945a068c7c81",
      "title": "Eye Implant"
    },
    "generator": "Sketchfab-12.68.0",
    "version": "2.0"
  },
  "bufferViews": [
    {
      "buffer": 0,
      "byteLength": 264096,
      "name": "floatBufferViews",
      "target": 34963
    },
    {
      "buffer": 0,
      "byteLength": 214960,
      "byteOffset": 264096,
      "byteStride": 8,
      "name": "floatBufferViews",
      "target": 34962
    },
    {
      "buffer": 0,
      "byteLength": 296784,
      "byteOffset": 479056,
      "byteStride": 12,
      "name": "floatBufferViews",
      "target": 34962
    },
    {
      "buffer": 0,
      "byteLength": 116032,
      "byteOffset": 775840,
      "byteStride": 16,
      "name": "floatBufferViews",
      "target": 34962
    }
  ],
  "buffers": [
    {
      "byteLength": 891872,
      "uri": "scene.bin"
    }
  ],
  "images": [
    {
      "uri": "textures/eye_material_baseColor.png"
    },
    {
      "uri": "textures/eye_material_metallicRoughness.png"
    },
    {
      "uri": "textures/eye_material_normal.png"
    }
  ],
  "materials": [
    {
      "doubleSided": true,
      "name": "eye_material",
      "normalTexture": {
        "index": 2
      },
      "occlusionTexture": {
        "index": 1
      },
      "pbrMetallicRoughness": {
        "baseColorTexture": {
          "index": 0
        },
        "metallicRoughnessTexture": {
          "index": 1
        }
      }
    },
    {
      "alphaMode": "BLEND",
      "doubleSided": true,
      "name": "sclera_material",
      "pbrMetallicRoughness": {
        "baseColorFactor": [
          0.8,
          0.8,
          0.8,
          0.5
        ],
        "roughnessFactor": 0.0
      }
    }
  ],
  "meshes": [
    {
      "name": "eye_eye_material_0",
      "primitives": [
        {
          "attributes": {
            "NORMAL": 1,
            "POSITION": 0,
            "TANGENT": 2,
            "TEXCOORD_0": 3,
            "TEXCOORD_1": 4,
            "TEXCOORD_2": 5
          },
          "indices": 6,
          "material": 0,
          "mode": 4
        }
      ]
    },
    {
      "name": "sclera_sclera_material_0",
      "primitives": [
        {
          "attributes": {
            "NORMAL": 8,
            "POSITION": 7,
            "TEXCOORD_0": 9
          },
          "indices": 10,
          "material": 1,
          "mode": 4
        }
      ]
    }
  ],
  "nodes": [
    {
      "children": [
        1
      ],
      "matrix": [
        0.9959291815757751,
        -0.0901390090584755,
        -2.001488065472301e-17,
        0.0,
        0.0,
        2.220446049250313e-16,
        -1.0,
        0.0,
        0.0901390090584755,
        0.9959291815757751,
        2.2114070165630276e-16,
        0.0,
        -0.5259372591972351,
        -11.645586967468262,
        -2.5858397573115836e-15,
        1.0
      ],
      "name": "Sketchfab_model"
    },
    {
      "children": [
        2
      ],
      "matrix": [
        1.0,
        0.0,
        0.0,
        0.0,
        0.0,
        0.0,
        1.0,
        0.0,
        0.0,
        -1.0,
        0.0,
        0.0,
        0.0,
        0.0,
        0.0,
        1.0
      ],
      "name": "eye_model.fbx"
    },
    {
      "children": [
        3,
        5
      ],
      "name": "RootNode"
    },
    {
      "children": [
        4
      ],
      "matrix": [
        100.0,
        0.0,
        0.0,
        0.0,
        0.0,
        -1.629206793918314e-05,
        -99.99999999999868,
        0.0,
        0.0,
        99.99999999999868,
        -1.629206793918314e-05,
        0.0,
        0.0,
        0.0,
        0.0,
        1.0
      ],
      "name": "eye"
    },
    {
      "mesh": 0,
      "name": "eye_eye_material_0"
    },
    {
      "children": [
        6
      ],
      "matrix": [
        100.0,
        0.0,
        0.0,
        0.0,
        0.0,
        -1.629206793918314e-05,
        -99.99999999999868,
        0.0,
        0.0,
        99.99999999999868,
        -1.629206793918314e-05,
        0.0,
        0.0,
        0.0,
        0.0,
        1.0
      ],
      "name": "sclera"
    },
    {
      "mesh": 1,
      "name": "sclera_sclera_material_0"
    }
  ],
  "samplers": [
    {
      "magFilter": 9729,
      "minFilter": 9987,
      "wrapS": 10497,
      "wrapT": 10497
    }
  ],
  "scene": 0,
  "scenes": [
    {
      "name": "Sketchfab_Scene",
      "nodes": [
        0
      ]
    }
  ],
  "textures": [
    {
      "sampler": 0,
      "source": 0
    },
    {
      "sampler": 0,
      "source": 1
    },
    {
      "sampler": 0,
      "source": 2
    }
  ]
}
